<?xml version="1.0" encoding="UTF-8"?>
<svg id="Layer_1" data-name="Layer 1" xmlns="http://www.w3.org/2000/svg" viewBox="0 0 512 512">
  <defs>
    <style>
      .cls-1 {
        fill: #f5eedc;
      }

      .cls-2 {
        fill: #8a1538;
      }
    </style>
  </defs>
  <rect class="cls-1" width="512" height="512" rx="170" ry="170"/>
  <path class="cls-2" d="m373.17,327.59c0,43.78-39.16,103.41-125.57,103.41-72.08,0-108.78-36.99-108.78-74.97,0-40.83,36.37-72.58,90.97-72.58,30.1,0,59.36,5.99,72.38,23.52,10.21,13.74,1.92,24.07-3.16,27.87-8.6,6.43-21.63,3.19-29.01-2.27-15.78-11.67-12.59-35.02-44.82-35.02-19.82,0-57.82,20.18-57.82,59.12s31.49,62.35,82.64,62.35,93.36-37.91,93.36-79.63c0-114.87-197.9-60.22-197.9-160.81,0-53.88,48.72-97.57,105.22-97.57,30.1,0,77.55,11.58,90.58,29.11,10.21,13.74,1.92,24.07-3.16,27.87-8.6,6.43-22.25,3.93-29.01-2.27-13.29-12.19-22.77-40.63-62.95-40.63-36.45,0-74.9,25.34-74.9,57.94,0,90.68,201.94,42.82,201.94,174.57Z"/>
</svg>