<?xml version="1.0" encoding="UTF-8"?>
<svg id="Layer_1" data-name="Layer 1" xmlns="http://www.w3.org/2000/svg" viewBox="0 0 234.36 349.99">
  <defs>
    <style>
      .cls-1 {
        fill: #f5eedc;
      }
    </style>
  </defs>
  <path class="cls-1" d="m234.35,246.58c0,43.78-39.16,103.41-125.57,103.41C36.7,349.99,0,313,0,275.02c0-40.83,36.37-72.58,90.97-72.58,30.1,0,59.36,5.99,72.38,23.52,10.21,13.74,1.92,24.07-3.16,27.87-8.6,6.43-21.63,3.19-29.01-2.27-15.78-11.67-12.59-35.02-44.82-35.02-19.82,0-57.82,20.18-57.82,59.12s31.49,62.35,82.64,62.35,93.36-37.91,93.36-79.63c0-114.87-197.9-60.22-197.9-160.81C6.64,43.69,55.36,0,111.86,0c30.1,0,77.55,11.58,90.58,29.11,10.21,13.74,1.92,24.07-3.16,27.87-8.6,6.43-22.25,3.93-29.01-2.27-13.29-12.19-22.77-40.63-62.95-40.63-36.45,0-74.9,25.34-74.9,57.94,0,90.68,201.94,42.82,201.94,174.57h0Z"/>
</svg>