<?xml version="1.0" encoding="UTF-8"?>
<svg id="Layer_1" data-name="Layer 1" xmlns="http://www.w3.org/2000/svg" viewBox="0 0 425 227.09">
  <defs>
    <style>
      .cls-1 {
        fill: #8a1538;
      }
    </style>
  </defs>
  <path class="cls-1" d="m100.3,111.13c-3.62,5-12.63,8.93-20.75,8.93-15.85,0-24.75-9.5-32.56-40.63l-7-28.03h-17.87l-7,28.03c-1.8,7.87-1.97,12.67,2.63,14.78.85.39.62,1.56-.31,1.56H.83c-.92,0-1.16-1.17-.31-1.56,6.42-2.95,9.52-9.67,13.49-25.58l12.41-49.71c1.82-7.98,1.81-12.02-2.79-14.14-.85-.39-.62-1.56.31-1.56h11.65c.77,0,1.44.52,1.62,1.27l16.02,64.13c6.69,26.55,13.08,48.02,26.12,48.02,6.97,0,8.98-6.99,11.44-10.85,1.33-2.09,3.01-3.59,5.49-3.59,4.62,0,6.74,5.17,4.03,8.91Zm-61.26-63.53l-7.99-31.98-7.99,31.98h15.97Z"/>
  <path class="cls-1" d="m112.82,81.79v12.13c0,1.02-.83,1.85-1.85,1.85h-44.81c-.93,0-1.16-1.17-.31-1.56,6.42-2.95,6.71-9.76,6.71-25.58V30.37c0-15.82-.29-22.63-6.71-25.58-.85-.39-.62-1.56.31-1.56h21.76c.93,0,1.16,1.17.31,1.56-6.42,2.95-6.71,9.76-6.71,25.58v61.6h4.18c15.82,0,22.63-4.06,25.58-10.49.39-.85,1.56-.62,1.56.31Z"/>
  <path class="cls-1" d="m183.2,67.3c0,19.02-18.56,28.47-44.76,28.47h-15.35c-.92,0-1.16-1.17-.31-1.56,6.42-2.95,6.71-9.76,6.71-25.58v-25.58c0-.5.41-.91.91-.91h8.03c21.81,0,31.78-10.71,31.78-20.41s-8.7-18.5-22.79-18.5c-17.83,0-26.84,9.82-26.84,20.59,0,7.07,5.68,9.08,8.61,9.08,7.53,0,11.37-6.3,15.63-9.45,1.99-1.47,5.51-2.35,7.83-.61,1.37,1.03,3.61,3.81.85,7.52-3.51,4.73-12.62,6.35-20.74,6.35-12.38,0-19.89-8.31-19.89-16.48,0-13.35,18.23-20.23,37.68-20.23s29.21,9.99,29.21,22.08c0,7.97-6.89,16.07-19.41,20.5,13.92,2.09,22.82,11.49,22.82,24.72Zm-9.57-1.56c-1.16-13.91-10.1-19.73-24.18-19.73-2.9,0-7.86.42-11.01.22v45.68c21.81,0,36.56-9.7,35.19-26.16Z"/>
  <path class="cls-1" d="m249.81,95.77h-21.76c-.92,0-1.16-1.17-.31-1.56,4.6-2.11,4.43-6.92,2.63-14.78l-7-28.03h-17.87l-7,28.03c-1.8,7.87-1.97,12.67,2.63,14.78.85.39.62,1.56-.31,1.56h-16.61c-.92,0-1.16-1.17-.31-1.56,6.42-2.95,9.52-9.67,13.49-25.58l12.41-49.71c1.82-7.98,1.81-12.02-2.79-14.14-.85-.39-.62-1.56.31-1.56h11.65c.77,0,1.44.52,1.62,1.27l16.02,64.13c3.97,15.9,7.07,22.63,13.49,25.58.85.39.62,1.56-.31,1.56Zm-27.38-48.17l-7.99-31.98-7.99,31.98h15.97Z"/>
  <path class="cls-1" d="m250.97,217.81c-5.35,6.03-16.36,10.31-28.11,9.06-25-2.67-44.89-45.1-57.67-74.13-1.81.11-3.67.16-5.61.16v22.41c0,15.82.29,22.63,6.71,25.58.85.39.62,1.56-.31,1.56h-21.76c-.92,0-1.16-1.17-.31-1.56,6.42-2.95,6.71-9.76,6.71-25.58v-25.58c0-.5.41-.91.91-.91h8.03c21.81,0,31.78-10.71,31.78-20.41s-8.7-18.5-22.79-18.5c-17.83,0-26.84,9.82-26.84,20.59,0,7.07,5.68,9.08,8.61,9.08,7.53,0,11.37-6.3,15.63-9.45,1.99-1.47,5.51-2.35,7.83-.61,1.37,1.03,3.61,3.81.85,7.52-3.51,4.73-12.62,6.35-20.74,6.35-12.38,0-19.89-8.31-19.89-16.48,0-13.35,18.23-20.23,37.68-20.23s29.21,9.99,29.21,22.08c0,10.92-9.48,19.97-27.32,23.03,12.84,25.61,32.81,71.54,52.57,71.54,8.58,0,12.31-5.5,15.29-10.85,1.21-2.16,3.01-3.59,5.49-3.59,4.62,0,7.09,5.46,4.03,8.91Z"/>
  <path class="cls-1" d="m286.86,156.18c0,26.08-17.87,47.21-39.89,47.21-23.86,0-36.49-21.36-38.98-37.22-1.41-8.98.61-21.44,7.2-28,.21-.21.53-.27.8-.14.3.15.46.49.37.81-1.91,6.87-1.24,15.69.26,23.31,4.63,23.52,21.94,39.91,38.66,36.62,16.72-3.29,26.52-25.02,21.89-48.54-4.21-21.4-18.93-36.9-34.14-37.04h0c-12.59,0-20.29,10.09-20.29,17.31s5.68,9.08,8.61,9.08c7.53,0,11.37-6.3,15.63-9.45,1.99-1.47,5.51-2.35,7.83-.61,1.37,1.03,3.61,3.81.85,7.52-3.51,4.73-12.62,6.35-20.74,6.35-12.38,0-19.89-4.25-19.89-12.41,0-12.5,17.02-22,30.57-22h0c.46,0,.92-.02,1.39-.02,22.03,0,39.88,21.15,39.87,47.23Z"/>
  <path class="cls-1" d="m358.25,175.49c0,11.81-10.57,27.9-33.88,27.9-19.45,0-29.35-9.98-29.35-20.23,0-11.02,9.81-19.58,24.54-19.58,8.12,0,16.02,1.62,19.53,6.35,2.75,3.71.52,6.49-.85,7.52-2.32,1.74-5.84.86-7.83-.61-4.26-3.15-3.4-9.45-12.09-9.45-5.35,0-15.6,5.45-15.6,15.95s8.5,16.82,22.3,16.82,25.19-10.23,25.19-21.48c0-30.99-53.4-16.25-53.4-43.39,0-14.54,13.14-26.33,28.39-26.33,8.12,0,20.92,3.12,24.44,7.85,2.75,3.71.52,6.49-.85,7.52-2.32,1.74-6,1.06-7.83-.61-3.59-3.29-6.14-10.96-16.98-10.96-9.83,0-20.21,6.84-20.21,15.63,0,24.47,54.49,11.55,54.49,47.1Z"/>
  <path class="cls-1" d="m328.72,208.9c2.48,0,4.16,1.5,5.49,3.59,2.46,3.85,4.46,10.85,11.44,10.85,13.04,0,19.43-21.47,26.12-48.02l16.02-64.13c.19-.74.85-1.27,1.62-1.27h3.11s8.54,0,8.54,0c.92,0,1.16,1.17.31,1.56-4.6,2.11-4.62,6.16-2.79,14.14l12.41,49.71c3.97,15.9,7.07,22.63,13.49,25.58.85.39.62,1.56-.31,1.56h-16.61c-.92,0-1.16-1.17-.31-1.56,4.6-2.11,4.43-6.92,2.63-14.78l-7-28.03h-17.87s-7,28.03-7,28.03c-7.81,31.13-16.71,40.63-32.56,40.63-8.12,0-17.13-3.93-20.75-8.93-2.71-3.74-.59-8.91,4.03-8.91Zm73.21-54.62l-7.99-31.98-7.99,31.98h15.97Z"/>
</svg>