<?xml version="1.0" encoding="UTF-8"?>
<svg id="Layer_1" data-name="Layer 1" xmlns="http://www.w3.org/2000/svg" viewBox="0 0 676.98 361.74">
  <defs>
    <style>
      .cls-1 {
        fill: #f5eedc;
      }
    </style>
  </defs>
  <path class="cls-1" d="m159.77,177.02c-5.77,7.96-20.12,14.22-33.06,14.22-25.25,0-39.42-15.13-51.86-64.72l-11.15-44.65h-28.47l-11.15,44.65c-2.86,12.53-3.14,20.18,4.19,23.55,1.35.62.99,2.48-.49,2.48H1.33c-1.47,0-1.84-1.86-.49-2.48,10.23-4.69,15.16-15.41,21.49-40.74L42.1,30.15c2.91-12.71,2.88-19.15-4.45-22.52-1.35-.62-.99-2.48.49-2.48h18.56c1.22,0,2.29.83,2.58,2.02l25.51,102.16c10.66,42.29,20.84,76.49,41.6,76.49,11.11,0,14.31-11.14,18.22-17.28,2.12-3.33,4.79-5.71,8.74-5.71,7.36,0,10.73,8.24,6.41,14.2ZM62.19,75.82l-12.72-50.94-12.72,50.94h25.44Z"/>
  <path class="cls-1" d="m179.71,130.28v19.33c0,1.62-1.32,2.94-2.94,2.94h-71.38c-1.47,0-1.84-1.86-.49-2.48,10.23-4.69,10.69-15.54,10.69-40.74v-60.95c0-25.2-.46-36.05-10.69-40.74-1.35-.62-.99-2.48.49-2.48h34.65c1.47,0,1.84,1.86.49,2.48-10.23,4.69-10.69,15.54-10.69,40.74v98.12h6.65c25.2,0,36.05-6.47,40.74-16.7.62-1.35,2.48-.99,2.48.49Z"/>
  <path class="cls-1" d="m291.83,107.2c0,30.29-29.56,45.35-71.3,45.35h-24.45c-1.47,0-1.84-1.86-.49-2.48,10.23-4.69,10.69-15.54,10.69-40.74v-40.75c0-.8.65-1.45,1.45-1.45h12.8c34.73,0,50.62-17.06,50.62-32.51s-13.86-29.46-36.3-29.46c-28.39,0-42.75,15.64-42.75,32.8,0,11.26,9.05,14.46,13.72,14.46,11.99,0,18.12-10.04,24.9-15.05,3.17-2.35,8.77-3.74,12.47-.98,2.18,1.63,5.75,6.07,1.36,11.98-5.6,7.53-20.1,10.11-33.04,10.11-19.72,0-31.68-13.24-31.68-26.25,0-21.27,29.04-32.22,60.02-32.22s46.54,15.92,46.54,35.16c0,12.69-10.97,25.6-30.91,32.66,22.17,3.33,36.35,18.3,36.35,39.37Zm-15.24-2.48c-1.84-22.15-16.08-31.43-38.52-31.43-4.63,0-12.52.67-17.54.34v72.76c34.73,0,58.24-15.45,56.06-41.67Z"/>
  <path class="cls-1" d="m397.93,152.55h-34.66c-1.47,0-1.84-1.86-.49-2.48,7.33-3.36,7.05-11.02,4.19-23.55l-11.15-44.65h-28.47l-11.15,44.65c-2.86,12.53-3.14,20.18,4.19,23.55,1.35.62.99,2.48-.49,2.48h-26.46c-1.47,0-1.84-1.86-.49-2.48,10.23-4.69,15.16-15.41,21.49-40.74l19.77-79.18c2.91-12.71,2.88-19.15-4.45-22.52-1.35-.62-.99-2.48.49-2.48h18.56c1.22,0,2.29.83,2.58,2.02l25.51,102.16c6.33,25.33,11.26,36.05,21.49,40.74,1.35.62.99,2.48-.49,2.48Zm-43.61-76.72l-12.72-50.94-12.72,50.94h25.44Z"/>
  <path class="cls-1" d="m399.77,346.96c-8.53,9.6-26.07,16.43-44.78,14.43-39.83-4.26-71.51-71.85-91.87-118.08-2.88.17-5.85.26-8.94.26v35.69c0,25.2.46,36.05,10.69,40.74,1.35.62.99,2.48-.49,2.48h-34.66c-1.47,0-1.84-1.86-.49-2.48,10.23-4.69,10.69-15.54,10.69-40.74v-40.75c0-.8.65-1.45,1.45-1.45h12.8c34.73,0,50.62-17.06,50.62-32.51s-13.86-29.46-36.3-29.46c-28.39,0-42.75,15.64-42.75,32.8,0,11.26,9.05,14.46,13.72,14.46,11.99,0,18.12-10.04,24.9-15.05,3.17-2.35,8.77-3.74,12.47-.98,2.18,1.63,5.75,6.07,1.36,11.98-5.6,7.53-20.1,10.11-33.04,10.11-19.72,0-31.68-13.24-31.68-26.25,0-21.27,29.04-32.22,60.02-32.22s46.54,15.92,46.54,35.16c0,17.39-15.1,31.81-43.51,36.69,20.45,40.8,52.27,113.95,83.73,113.95,13.67,0,19.61-8.76,24.36-17.28,1.92-3.45,4.79-5.71,8.74-5.71,7.36,0,11.3,8.7,6.41,14.2Z"/>
  <path class="cls-1" d="m456.94,248.79c0,41.54-28.46,75.19-63.54,75.19-38.01,0-58.12-34.02-62.08-59.28-2.24-14.31.97-34.15,11.47-44.6.34-.34.85-.43,1.28-.22.48.23.73.77.59,1.29-3.05,10.95-1.98,24.99.41,37.13,7.37,37.46,34.94,63.57,61.58,58.33,26.63-5.24,42.25-39.86,34.87-77.32-6.71-34.09-30.15-58.78-54.39-58.99h0c-20.05,0-32.32,16.08-32.32,27.58s9.05,14.46,13.72,14.46c11.99,0,18.12-10.04,24.9-15.05,3.17-2.35,8.77-3.74,12.47-.98,2.18,1.63,5.75,6.07,1.36,11.98-5.6,7.53-20.1,10.11-33.04,10.11-19.72,0-31.68-6.76-31.68-19.77,0-19.91,27.1-35.05,48.7-35.05v.02c.72-.03,1.46-.05,2.2-.05,35.09,0,63.52,33.69,63.51,75.23Z"/>
  <path class="cls-1" d="m570.66,279.54c0,18.82-16.83,44.44-53.97,44.44-30.98,0-46.75-15.9-46.75-32.22,0-17.55,15.63-31.19,39.1-31.19,12.94,0,25.51,2.57,31.11,10.11,4.39,5.91.83,10.34-1.36,11.98-3.7,2.77-9.3,1.37-12.47-.98-6.78-5.01-5.41-15.05-19.26-15.05-8.52,0-24.85,8.67-24.85,25.41s13.54,26.8,35.52,26.8,40.12-16.29,40.12-34.22c0-49.37-85.06-25.88-85.06-69.11,0-23.16,20.94-41.93,45.22-41.93,12.93,0,33.33,4.98,38.93,12.51,4.39,5.91.83,10.34-1.36,11.98-3.7,2.77-9.56,1.69-12.47-.98-5.71-5.24-9.78-17.46-27.05-17.46-15.66,0-32.19,10.89-32.19,24.9,0,38.97,86.79,18.4,86.79,75.03Z"/>
  <path class="cls-1" d="m523.62,332.76c3.95,0,6.62,2.39,8.74,5.71,3.91,6.14,7.11,17.28,18.22,17.28,20.76,0,30.94-34.19,41.6-76.49l25.51-102.16c.3-1.19,1.36-2.02,2.58-2.02h4.95s13.61,0,13.61,0c1.47,0,1.84,1.86.49,2.48-7.33,3.36-7.35,9.81-4.45,22.52l19.77,79.18c6.33,25.33,11.26,36.05,21.49,40.74,1.35.62.99,2.48-.49,2.48h-26.46c-1.47,0-1.84-1.86-.49-2.48,7.33-3.36,7.05-11.02,4.19-23.55l-11.15-44.65h-28.47s-11.15,44.65-11.15,44.65c-12.45,49.58-26.61,64.72-51.86,64.72-12.93,0-27.29-6.26-33.06-14.22-4.32-5.96-.94-14.2,6.41-14.2Zm116.61-87l-12.72-50.94-12.72,50.94h25.44Z"/>
</svg>